<svg width="1440px" height="690px" viewBox="0 0 1440 690" version="1.1" xmlns="http://www.w3.org/2000/svg" xmlns:xlink="http://www.w3.org/1999/xlink">
    <!-- Generator: Sketch 46.2 (44496) - http://www.bohemiancoding.com/sketch -->
    <desc>Created with Sketch.</desc>
    <defs></defs>
    <g id="BriefCases" stroke="none" stroke-width="1" fill="none" fill-rule="evenodd">
        <g id="Landing-page" transform="translate(0.000000, -369.000000)" fill="#0B132B">
            <g id="Body" transform="translate(-1171.000000, -542.000000)">
                <g id="Splash">
                    <g id="Road" transform="translate(1383.730832, 1134.213659) rotate(23.000000) translate(-1383.730832, -1134.213659) translate(188.730832, 409.713659)">
                        <path d="M937.950996,934.299899 C1238.98084,851.476958 1577.44395,582.25645 1492.96385,544.667137 C1408.48374,507.077824 1341.04762,513.511811 1311.01542,511.542469 C1291.71941,510.277146 1224.38645,516.231666 1109.01652,529.40603 C1106.12486,529.736236 1097.19769,530.986265 1082.23501,533.156118 C1063.44276,535.576586 1105.77393,520.839045 1127.99359,513.732752 C1184.85312,495.547939 1265.48569,476.180232 1278.89156,474.013806 C1311.81964,468.692536 1622.04806,424.76057 1680.86635,516.621279 C1772.23303,421.524354 1735.40521,458.217164 1893.25889,307.133156 C2051.11257,156.049147 2291.04015,-5.40045714 2389.28636,0.494387721 C2153.36215,148.075705 2034.55072,271.521102 1867.00549,518.32279 C1728.77278,728.942249 1494.33251,973.534098 1163.68468,1252.09834 C812.508994,1095.44801 737.264431,989.515194 937.950996,934.299899 Z" id="Path-4"></path>
                    </g>
                </g>
            </g>
        </g>
    </g>
</svg>
